<?xml version="1.0" encoding="UTF-8" standalone="no"?>
<svg
   xmlns:dc="http://purl.org/dc/elements/1.1/"
   xmlns:cc="http://creativecommons.org/ns#"
   xmlns:rdf="http://www.w3.org/1999/02/22-rdf-syntax-ns#"
   xmlns:svg="http://www.w3.org/2000/svg"
   xmlns="http://www.w3.org/2000/svg"
   xmlns:sodipodi="http://sodipodi.sourceforge.net/DTD/sodipodi-0.dtd"
   xmlns:inkscape="http://www.inkscape.org/namespaces/inkscape"
   width="33.856876mm"
   height="16.937004mm"
   viewBox="0 0 33.856876 16.937004"
   version="1.1"
   id="svg8"
   inkscape:version="1.0.2 (e86c870879, 2021-01-15, custom)">
  <defs
     id="defs2" />
  <sodipodi:namedview
     id="base"
     pagecolor="#ffffff"
     bordercolor="#666666"
     borderopacity="1.0"
     inkscape:pageopacity="0.0"
     inkscape:pageshadow="2"
     inkscape:zoom="2.8"
     inkscape:cx="117.22326"
     inkscape:cy="101.44217"
     inkscape:document-units="mm"
     inkscape:current-layer="layer1"
     inkscape:document-rotation="0"
     showgrid="false"
     inkscape:snap-center="true"
     inkscape:snap-object-midpoints="true"
     inkscape:window-width="1406"
     inkscape:window-height="1161"
     inkscape:window-x="182"
     inkscape:window-y="0"
     inkscape:window-maximized="0" />
  <metadata
     id="metadata5">
    <rdf:RDF>
      <cc:Work
         rdf:about="">
        <dc:format>image/svg+xml</dc:format>
        <dc:type
           rdf:resource="http://purl.org/dc/dcmitype/StillImage" />
        <dc:title></dc:title>
      </cc:Work>
    </rdf:RDF>
  </metadata>
  <g
     inkscape:label="Livello 1"
     inkscape:groupmode="layer"
     id="layer1"
     transform="translate(-30.904933,-99.437324)">
    <path
       style="fill:none;stroke:#000000;stroke-width:0.471518;stroke-linecap:butt;stroke-linejoin:miter;stroke-miterlimit:4;stroke-dasharray:none;stroke-dashoffset:0;stroke-opacity:1"
       d="m 44.799432,116.15845 19.867619,-8.72087"
       id="path833-0"
       sodipodi:nodetypes="cc" />
    <path
       style="fill:none;stroke:#000000;stroke-width:0.471518;stroke-linecap:butt;stroke-linejoin:miter;stroke-miterlimit:4;stroke-dasharray:none;stroke-dashoffset:0;stroke-opacity:1"
       d="M 31.020739,108.39886 50.813917,99.652969"
       id="path833-0-3"
       sodipodi:nodetypes="cc" />
    <path
       style="fill:none;stroke:#000000;stroke-width:0.471518;stroke-linecap:butt;stroke-linejoin:miter;stroke-miterlimit:4;stroke-dasharray:none;stroke-dashoffset:0;stroke-opacity:1"
       d="M 44.799322,116.15862 31.020621,108.39888"
       id="path833-0-6"
       sodipodi:nodetypes="cc" />
    <path
       style="fill:none;stroke:#000000;stroke-width:0.471518;stroke-linecap:butt;stroke-linejoin:miter;stroke-miterlimit:4;stroke-dasharray:none;stroke-dashoffset:0;stroke-opacity:1"
       d="M 47.296496,115.03709 33.542089,107.25621"
       id="path833-0-9"
       sodipodi:nodetypes="cc" />
    <path
       style="fill:none;stroke:#000000;stroke-width:0.471518;stroke-linecap:butt;stroke-linejoin:miter;stroke-miterlimit:4;stroke-dasharray:none;stroke-dashoffset:0;stroke-opacity:1"
       d="M 50.076435,113.81535 36.322041,106.03437"
       id="path833-0-9-2"
       sodipodi:nodetypes="cc" />
    <path
       style="fill:none;stroke:#000000;stroke-width:0.471518;stroke-linecap:butt;stroke-linejoin:miter;stroke-miterlimit:4;stroke-dasharray:none;stroke-dashoffset:0;stroke-opacity:1"
       d="M 53.044505,112.50544 39.290103,104.72441"
       id="path833-0-9-6"
       sodipodi:nodetypes="cc" />
    <path
       style="fill:none;stroke:#000000;stroke-width:0.471518;stroke-linecap:butt;stroke-linejoin:miter;stroke-miterlimit:4;stroke-dasharray:none;stroke-dashoffset:0;stroke-opacity:1"
       d="M 55.948068,111.22379 42.193669,103.44287"
       id="path833-0-9-0"
       sodipodi:nodetypes="cc" />
    <path
       style="fill:none;stroke:#000000;stroke-width:0.471518;stroke-linecap:butt;stroke-linejoin:miter;stroke-miterlimit:4;stroke-dasharray:none;stroke-dashoffset:0;stroke-opacity:1"
       d="M 58.908673,109.97447 45.154258,102.19345"
       id="path833-0-9-7"
       sodipodi:nodetypes="cc" />
    <path
       style="fill:none;stroke:#000000;stroke-width:0.471518;stroke-linecap:butt;stroke-linejoin:miter;stroke-miterlimit:4;stroke-dasharray:none;stroke-dashoffset:0;stroke-opacity:1"
       d="M 61.7022,108.70364 47.947785,100.92267"
       id="path833-0-9-7-2"
       sodipodi:nodetypes="cc" />
    <path
       style="fill:none;stroke:#000000;stroke-width:0.471518;stroke-linecap:butt;stroke-linejoin:miter;stroke-miterlimit:4;stroke-dasharray:none;stroke-dashoffset:0;stroke-opacity:1"
       d="M 64.531013,107.43535 50.776616,99.654231"
       id="path833-0-9-7-4"
       sodipodi:nodetypes="cc" />
    <path
       style="fill:none;stroke:#000000;stroke-width:0.471518;stroke-linecap:butt;stroke-linejoin:miter;stroke-miterlimit:4;stroke-dasharray:none;stroke-dashoffset:0;stroke-opacity:1"
       d="m 33.245107,109.65518 19.793191,-8.74566"
       id="path833-0-3-7"
       sodipodi:nodetypes="cc" />
    <path
       style="fill:none;stroke:#000000;stroke-width:0.471518;stroke-linecap:butt;stroke-linejoin:miter;stroke-miterlimit:4;stroke-dasharray:none;stroke-dashoffset:0;stroke-opacity:1"
       d="M 35.36674,110.91885 55.159935,102.1729"
       id="path833-0-3-2"
       sodipodi:nodetypes="cc" />
    <path
       style="fill:none;stroke:#000000;stroke-width:0.471518;stroke-linecap:butt;stroke-linejoin:miter;stroke-miterlimit:4;stroke-dasharray:none;stroke-dashoffset:0;stroke-opacity:1"
       d="m 37.909967,112.27865 19.793192,-8.74571"
       id="path833-0-3-21"
       sodipodi:nodetypes="cc" />
    <path
       style="fill:none;stroke:#000000;stroke-width:0.471518;stroke-linecap:butt;stroke-linejoin:miter;stroke-miterlimit:4;stroke-dasharray:none;stroke-dashoffset:0;stroke-opacity:1"
       d="m 40.336356,113.66099 19.793187,-8.74557"
       id="path833-0-3-0"
       sodipodi:nodetypes="cc" />
    <path
       style="fill:none;stroke:#000000;stroke-width:0.471518;stroke-linecap:butt;stroke-linejoin:miter;stroke-miterlimit:4;stroke-dasharray:none;stroke-dashoffset:0;stroke-opacity:1"
       d="m 42.588685,114.83797 19.793226,-8.74556"
       id="path833-0-3-8"
       sodipodi:nodetypes="cc" />
    <path
       style="fill:#9e9e9e;stroke:#9e9e9e;stroke-width:1.51181104;stroke-miterlimit:4;stroke-dasharray:none;stroke-dashoffset:0;paint-order:markers fill stroke;fill-opacity:1;stroke-opacity:1"
       d="m 78.212188,12.209739 c -1.420377,-0.815021 -2.585555,-1.581934 -2.589286,-1.704252 -0.0065,-0.212955 7.430172,-3.5372303 7.898551,-3.5307437 0.548828,0.0076 5.696238,3.1565187 5.428529,3.3208917 -0.672212,0.412735 -7.728514,3.465232 -7.93349,3.431961 -0.121991,-0.0198 -1.383928,-0.702837 -2.804304,-1.517857 z"
       id="path1197"
       transform="matrix(0.26458333,0,0,0.26458333,30.904933,99.437324)" />
    <path
       style="fill:#9e9e9e;fill-opacity:1;stroke:#9e9e9e;stroke-width:0.539932;stroke-miterlimit:4;stroke-dasharray:none;stroke-dashoffset:0;stroke-opacity:1;paint-order:markers fill stroke"
       d="m 87.127713,17.208487 c -1.804405,-1.010761 -3.284465,-1.918627 -3.289022,-2.017482 -0.0082,-0.178784 7.478927,-3.570817 7.880998,-3.570454 0.437692,3.95e-4 6.440716,3.504515 6.440255,3.759343 -3.93e-4,0.222968 -4.444166,2.360898 -7.02266,3.378659 -0.549228,0.216786 -1.537307,-0.165197 -4.009571,-1.550066 z"
       id="path1207"
       transform="matrix(0.26458333,0,0,0.26458333,30.904933,99.437324)" />
    <path
       style="fill:#9e9e9e;fill-opacity:1;stroke:#9e9e9e;stroke-width:0.539932;stroke-miterlimit:4;stroke-dasharray:none;stroke-dashoffset:0;stroke-opacity:1;paint-order:markers fill stroke"
       d="m 96.508976,22.487304 c -1.571429,-0.895468 -2.983948,-1.752328 -3.138933,-1.904133 -0.260924,-0.255572 6.833137,-3.605287 7.635307,-3.605287 0.38508,0 5.08751,2.520187 6.13812,3.289619 0.56197,0.411565 0.18519,0.658352 -3.29618,2.15896 -2.16187,0.931853 -4.054538,1.693083 -4.205924,1.691622 -0.151386,-0.0015 -1.560961,-0.735312 -3.13239,-1.630781 z"
       id="path1209"
       transform="matrix(0.26458333,0,0,0.26458333,30.904933,99.437324)" />
    <path
       style="fill:#9e9e9e;fill-opacity:1;stroke:#9e9e9e;stroke-width:0.539932;stroke-miterlimit:4;stroke-dasharray:none;stroke-dashoffset:0;stroke-opacity:1;paint-order:markers fill stroke"
       d="m 69.797449,7.4340995 c -1.530626,-0.8890721 -2.729808,-1.6696428 -2.66485,-1.734601 0.06496,-0.064958 1.882941,-0.9044644 4.03996,-1.865569 l 3.921853,-1.747463 2.92593,1.6377752 c 1.609261,0.9007764 2.811466,1.7438446 2.671568,1.873485 C 80.404299,5.864247 72.907046,9.1398774 72.70872,9.0856678 72.638146,9.0663785 71.328075,8.323172 69.797449,7.4340995 Z"
       id="path1211"
       transform="matrix(0.26458333,0,0,0.26458333,30.904933,99.437324)" />
    <path
       style="fill:#9e9e9e;fill-opacity:1;stroke:#9e9e9e;stroke-width:0.539932;stroke-miterlimit:4;stroke-dasharray:none;stroke-dashoffset:0;stroke-opacity:1;paint-order:markers fill stroke"
       d="m 59.366119,12.289372 c -1.375,-0.790344 -2.615325,-1.548184 -2.756278,-1.684088 -0.234636,-0.226232 6.995288,-3.6280272 7.709813,-3.6275902 0.467394,2.859e-4 5.582179,2.9636647 5.582179,3.2341752 0,0.240531 -7.327276,3.566711 -7.783124,3.533111 -0.138924,-0.01024 -1.37759,-0.665264 -2.75259,-1.455608 z"
       id="path1213"
       transform="matrix(0.26458333,0,0,0.26458333,30.904933,99.437324)" />
    <path
       style="fill:#9e9e9e;fill-opacity:1;stroke:#9e9e9e;stroke-width:0.539932;stroke-miterlimit:4;stroke-dasharray:none;stroke-dashoffset:0;stroke-opacity:1;paint-order:markers fill stroke"
       d="m 67.491119,16.886712 c -1.424107,-0.81208 -2.586343,-1.565745 -2.582747,-1.674811 0.0099,-0.298895 7.825169,-3.64641 8.125686,-3.480456 0.143348,0.07916 1.445102,0.828206 2.892786,1.664545 l 2.632154,1.520617 -3.882154,1.735746 c -2.135184,0.95466 -4.042868,1.730148 -4.239297,1.723307 -0.196428,-0.0068 -1.522321,-0.676868 -2.946428,-1.488948 z"
       id="path1215"
       transform="matrix(0.26458333,0,0,0.26458333,30.904933,99.437324)" />
    <path
       style="fill:#9e9e9e;fill-opacity:1;stroke:#9e9e9e;stroke-width:0.539932;stroke-miterlimit:4;stroke-dasharray:none;stroke-dashoffset:0;stroke-opacity:1;paint-order:markers fill stroke"
       d="m 76.415275,21.90223 c -1.819393,-1.014248 -3.185464,-1.966241 -3.035714,-2.11554 0.14975,-0.149299 1.921057,-1.002264 3.936238,-1.895477 l 3.663966,-1.624025 3.425089,1.919484 c 1.883798,1.055715 3.288585,2.003305 3.121748,2.105754 -0.307068,0.18856 -7.680325,3.478479 -7.76011,3.462531 -0.02378,-0.0048 -1.531824,-0.83848 -3.351217,-1.852727 z"
       id="path1217"
       transform="matrix(0.26458333,0,0,0.26458333,30.904933,99.437324)" />
    <path
       style="fill:#9e9e9e;fill-opacity:1;stroke:#9e9e9e;stroke-width:0.539932;stroke-miterlimit:4;stroke-dasharray:none;stroke-dashoffset:0;stroke-opacity:1;paint-order:markers fill stroke"
       d="m 85.708407,27.189666 c -1.812011,-1.000409 -3.297267,-1.899806 -3.30057,-1.998661 -0.0033,-0.09885 1.760873,-0.960104 3.920388,-1.913889 l 3.926393,-1.734153 3.397187,1.881976 c 1.868452,1.035087 3.349866,1.929298 3.292029,1.987135 -0.05784,0.05784 -1.868192,0.890714 -4.02301,1.850838 l -3.917851,1.745679 z"
       id="path1219"
       transform="matrix(0.26458333,0,0,0.26458333,30.904933,99.437324)" />
    <path
       style="fill:#9e9e9e;fill-opacity:1;stroke:#9e9e9e;stroke-width:0.539932;stroke-miterlimit:4;stroke-dasharray:none;stroke-dashoffset:0;stroke-opacity:1;paint-order:markers fill stroke"
       d="m 95.79469,32.901649 c -0.392857,-0.257037 -1.559847,-0.941398 -2.593311,-1.520801 l -1.879025,-1.053461 3.854707,-1.674751 c 2.120089,-0.921114 4.069741,-1.674752 4.33256,-1.674752 0.439724,0 5.838459,2.91427 5.652719,3.051374 -0.57594,0.425137 -7.67521,3.372264 -8.090128,3.358464 -0.30978,-0.0103 -0.884665,-0.229036 -1.277522,-0.486073 z"
       id="path1221"
       transform="matrix(0.26458333,0,0,0.26458333,30.904933,99.437324)" />
    <path
       style="fill:#9e9e9e;fill-opacity:1;stroke:#9e9e9e;stroke-width:0.539932;stroke-miterlimit:4;stroke-dasharray:none;stroke-dashoffset:0;stroke-opacity:1;paint-order:markers fill stroke"
       d="m 104.96272,27.283434 c -1.43973,-0.804668 -2.48437,-1.595981 -2.32143,-1.758472 0.16294,-0.162491 1.94501,-1.026235 3.96015,-1.91943 l 3.66389,-1.623992 2.67539,1.496303 c 1.47147,0.822966 2.6754,1.602603 2.6754,1.732527 0,0.235271 -7.30233,3.560967 -7.78313,3.544663 -0.13892,-0.0047 -1.43054,-0.666931 -2.87027,-1.471599 z"
       id="path1223"
       transform="matrix(0.26458333,0,0,0.26458333,30.904933,99.437324)" />
    <path
       style="fill:#9e9e9e;fill-opacity:1;stroke:#9e9e9e;stroke-width:0.539932;stroke-miterlimit:4;stroke-dasharray:none;stroke-dashoffset:0;stroke-opacity:1;paint-order:markers fill stroke"
       d="m 113.47665,32.132941 c -1.47135,-0.859802 -2.71366,-1.688392 -2.7607,-1.84131 -0.047,-0.152918 1.67331,-1.044912 3.82299,-1.982208 l 3.90851,-1.704175 3.03994,1.704175 c 1.67196,0.937296 3.04384,1.785056 3.04862,1.883911 0.0116,0.239582 -7.57008,3.580112 -8.02703,3.536765 -0.19643,-0.01863 -1.56098,-0.737355 -3.03233,-1.597158 z"
       id="path1225"
       transform="matrix(0.26458333,0,0,0.26458333,30.904933,99.437324)" />
    <path
       style="fill:#9e9e9e;fill-opacity:1;stroke:#9e9e9e;stroke-width:0.539932;stroke-miterlimit:4;stroke-dasharray:none;stroke-dashoffset:0;stroke-opacity:1;paint-order:markers fill stroke"
       d=""
       id="path1227"
       transform="matrix(0.26458333,0,0,0.26458333,30.904933,99.437324)" />
    <path
       style="fill:#9e9e9e;fill-opacity:1;stroke:#9e9e9e;stroke-width:0.539932;stroke-miterlimit:4;stroke-dasharray:none;stroke-dashoffset:0;stroke-opacity:1;paint-order:markers fill stroke"
       d="M 91.777931,41.688648 C 90.158,40.767371 88.832107,39.932717 88.831503,39.833862 c -0.0014,-0.229584 7.547225,-3.570707 8.066757,-3.570454 0.214107,1.05e-4 1.766956,0.772477 3.45078,1.716382 l 3.06149,1.716192 -3.986492,1.720268 c -2.19257,0.946147 -4.147205,1.771383 -4.343633,1.833858 -0.196429,0.06247 -1.682542,-0.640182 -3.302474,-1.56146 z"
       id="path1229"
       transform="matrix(0.26458333,0,0,0.26458333,30.904933,99.437324)" />
    <path
       style="fill:#9e9e9e;fill-opacity:1;stroke:#9e9e9e;stroke-width:0.539932;stroke-miterlimit:4;stroke-dasharray:none;stroke-dashoffset:0;stroke-opacity:1;paint-order:markers fill stroke"
       d="m 102.51225,36.696887 c -1.60892,-0.916311 -2.888458,-1.702866 -2.843424,-1.7479 0.04503,-0.04503 1.866264,-0.876951 4.047184,-1.848703 l 3.9653,-1.766823 2.80669,1.595849 c 1.54368,0.877717 2.93539,1.721943 3.09268,1.876057 0.27311,0.267589 -7.04384,3.634228 -7.78599,3.582454 -0.19643,-0.0137 -1.67353,-0.774623 -3.28244,-1.690934 z"
       id="path1231"
       transform="matrix(0.26458333,0,0,0.26458333,30.904933,99.437324)" />
    <path
       style="fill:#9e9e9e;fill-opacity:1;stroke:#9e9e9e;stroke-width:0.539932;stroke-miterlimit:4;stroke-dasharray:none;stroke-dashoffset:0;stroke-opacity:1;paint-order:markers fill stroke"
       d="m 48.195235,16.988591 -2.956599,-1.697496 4.156322,-1.851936 c 2.285977,-1.018565 4.262797,-1.804216 4.392933,-1.745891 0.958721,0.429679 5.778355,3.236251 5.689747,3.313257 -0.108908,0.09465 -5.122895,2.324553 -7.254376,3.226287 -1.002802,0.424241 -1.260805,0.344546 -4.028027,-1.244221 z"
       id="path1233"
       transform="matrix(0.26458333,0,0,0.26458333,30.904933,99.437324)" />
    <path
       style="fill:#9e9e9e;fill-opacity:1;stroke:#9e9e9e;stroke-width:0.539932;stroke-miterlimit:4;stroke-dasharray:none;stroke-dashoffset:0;stroke-opacity:1;paint-order:markers fill stroke"
       d="m 56.866119,21.932229 c -1.375,-0.790344 -2.625719,-1.558578 -2.779376,-1.707186 -0.153657,-0.148608 1.571574,-1.090202 3.833846,-2.092429 l 4.113223,-1.822232 2.876269,1.629588 c 1.581948,0.896273 2.829931,1.672451 2.773296,1.724838 -0.107732,0.09965 -8.251191,3.755473 -8.293169,3.723029 -0.01325,-0.01024 -1.149089,-0.665264 -2.524089,-1.455608 z"
       id="path1235"
       transform="matrix(0.26458333,0,0,0.26458333,30.904933,99.437324)" />
    <path
       style="fill:#9e9e9e;fill-opacity:1;stroke:#9e9e9e;stroke-width:0.539932;stroke-miterlimit:4;stroke-dasharray:none;stroke-dashoffset:0;stroke-opacity:1;paint-order:markers fill stroke"
       d="m 65.437547,26.762908 c -1.571428,-0.891877 -2.981414,-1.74246 -3.133302,-1.890184 -0.151888,-0.147723 1.5889,-1.078802 3.868418,-2.069064 l 4.144578,-1.800476 3.050935,1.710274 c 1.678014,0.940651 3.190307,1.849647 3.360652,2.019992 0.30678,0.306781 -7.033103,3.683491 -7.960073,3.662029 -0.260736,-0.006 -1.759779,-0.740694 -3.331208,-1.632571 z"
       id="path1237"
       transform="matrix(0.26458333,0,0,0.26458333,30.904933,99.437324)" />
    <path
       style="fill:#9e9e9e;fill-opacity:1;stroke:#9e9e9e;stroke-width:0.539932;stroke-miterlimit:4;stroke-dasharray:none;stroke-dashoffset:0;stroke-opacity:1;paint-order:markers fill stroke"
       d="m 74.621993,31.987859 c -1.627126,-0.935334 -3.039082,-1.781278 -3.13768,-1.879876 -0.0986,-0.0986 1.693365,-1.003495 3.982139,-2.010883 l 4.161408,-1.831614 3.405851,1.935745 3.405852,1.935744 -1.215293,0.519627 c -0.668412,0.285794 -2.527044,1.101785 -4.130295,1.813311 -1.60325,0.711527 -3.049679,1.276781 -3.214285,1.256119 -0.164607,-0.02066 -1.63057,-0.802838 -3.257697,-1.738173 z"
       id="path1239"
       transform="matrix(0.26458333,0,0,0.26458333,30.904933,99.437324)" />
    <path
       style="fill:#9e9e9e;fill-opacity:1;stroke:#9e9e9e;stroke-width:0.539932;stroke-miterlimit:4;stroke-dasharray:none;stroke-dashoffset:0;stroke-opacity:1;paint-order:markers fill stroke"
       d="m 83.132132,36.782964 -2.662559,-1.556113 3.040094,-1.397883 c 5.523895,-2.539974 5.099928,-2.504662 8.272541,-0.689021 l 2.773232,1.58708 -4.201803,1.845309 c -2.310992,1.01492 -4.282161,1.827631 -4.380375,1.806025 -0.09822,-0.02161 -1.376723,-0.739535 -2.84113,-1.595397 z"
       id="path1241"
       transform="matrix(0.26458333,0,0,0.26458333,30.904933,99.437324)" />
    <path
       style="fill:#9e9e9e;fill-opacity:1;stroke:#9e9e9e;stroke-width:0.539932;stroke-miterlimit:4;stroke-dasharray:none;stroke-dashoffset:0;stroke-opacity:1;paint-order:markers fill stroke"
       d="m 37.140759,21.852596 c -1.420376,-0.81502 -2.585555,-1.572754 -2.589286,-1.683852 -0.01116,-0.332197 7.787569,-3.614938 8.284583,-3.487255 1.125625,0.289174 5.605131,2.971327 5.364441,3.212017 -0.410381,0.410381 -7.633958,3.517849 -8.082463,3.476947 -0.217125,-0.0198 -1.556898,-0.702837 -2.977275,-1.517857 z"
       id="path1243"
       transform="matrix(0.26458333,0,0,0.26458333,30.904933,99.437324)" />
    <path
       style="fill:#9e9e9e;fill-opacity:1;stroke:#9e9e9e;stroke-width:0.539932;stroke-miterlimit:4;stroke-dasharray:none;stroke-dashoffset:0;stroke-opacity:1;paint-order:markers fill stroke"
       d="m 25.855479,26.733517 -2.796355,-1.638373 4.317737,-1.913462 4.317736,-1.913461 3.011044,1.6855 c 1.656075,0.927025 2.980381,1.708847 2.942904,1.737381 -0.332994,0.253535 -8.460231,3.711238 -8.692215,3.698071 -0.167473,-0.0095 -1.562857,-0.75455 -3.100851,-1.655656 z"
       id="path1245"
       transform="matrix(0.26458333,0,0,0.26458333,30.904933,99.437324)" />
    <path
       style="fill:#9e9e9e;fill-opacity:1;stroke:#9e9e9e;stroke-width:0.539932;stroke-miterlimit:4;stroke-dasharray:none;stroke-dashoffset:0;stroke-opacity:1;paint-order:markers fill stroke"
       d=""
       id="path1247"
       transform="matrix(0.26458333,0,0,0.26458333,30.904933,99.437324)" />
    <path
       style="fill:#9e9e9e;fill-opacity:1;stroke:#9e9e9e;stroke-width:0.539932;stroke-miterlimit:4;stroke-dasharray:none;stroke-dashoffset:0;stroke-opacity:1;paint-order:markers fill stroke"
       d="M 6.0776173,35.786429 C 4.6617985,34.952354 3.4112878,34.177815 3.2987046,34.065232 3.1861215,33.952649 4.6441974,33.192897 6.5388734,32.376896 l 3.4448653,-1.483639 3.0211803,1.646847 c 1.661649,0.905765 2.969114,1.690475 2.905476,1.7438 -0.223165,0.186997 -6.9045666,3.050951 -7.0806134,3.035074 -0.097872,-0.0088 -1.3363457,-0.698473 -2.7521643,-1.532549 z"
       id="path1251"
       transform="matrix(0.26458333,0,0,0.26458333,30.904933,99.437324)" />
    <path
       style="fill:#9e9e9e;fill-opacity:1;stroke:#9e9e9e;stroke-width:0.539932;stroke-miterlimit:4;stroke-dasharray:none;stroke-dashoffset:0;stroke-opacity:1;paint-order:markers fill stroke"
       d="m 15.526833,31.423557 c -1.522321,-0.887069 -2.767857,-1.659336 -2.767857,-1.716149 0,-0.05681 1.751225,-0.868825 3.89161,-1.80447 l 3.891611,-1.701174 2.91203,1.679657 c 1.601617,0.923812 2.863785,1.726048 2.804818,1.782747 -0.198601,0.190966 -7.518477,3.385211 -7.742553,3.378693 -0.121991,-0.0035 -1.467338,-0.732234 -2.989659,-1.619304 z"
       id="path1253"
       transform="matrix(0.26458333,0,0,0.26458333,30.904933,99.437324)" />
    <path
       style="fill:#9e9e9e;fill-opacity:1;stroke:#9e9e9e;stroke-width:0.539932;stroke-miterlimit:4;stroke-dasharray:none;stroke-dashoffset:0;stroke-opacity:1;paint-order:markers fill stroke"
       d="m 14.280843,40.441396 c -1.421901,-0.824575 -2.58708,-1.592476 -2.589285,-1.706447 -0.0022,-0.113972 1.482596,-0.861457 3.299561,-1.661078 l 3.303571,-1.453857 2.678572,1.435541 c 1.473214,0.789547 2.802206,1.548167 2.953315,1.685822 0.242721,0.221109 -6.20831,3.265127 -6.819479,3.217876 -0.132539,-0.01025 -1.404353,-0.693283 -2.826255,-1.517857 z"
       id="path1255"
       transform="matrix(0.26458333,0,0,0.26458333,30.904933,99.437324)" />
    <path
       style="fill:#9e9e9e;fill-opacity:1;stroke:#9e9e9e;stroke-width:0.539932;stroke-miterlimit:4;stroke-dasharray:none;stroke-dashoffset:0;stroke-opacity:1;paint-order:markers fill stroke"
       d="m 23.91969,36.180786 c -1.424107,-0.820834 -2.589059,-1.579961 -2.588782,-1.68695 2.77e-4,-0.106988 1.703048,-0.949446 3.783935,-1.872129 l 3.783431,-1.677606 2.945033,1.670577 2.945033,1.670577 -3.8965,1.703457 c -2.143074,0.936902 -4.005931,1.699192 -4.139682,1.693979 -0.13375,-0.0052 -1.408361,-0.68107 -2.832468,-1.501905 z"
       id="path1257"
       transform="matrix(0.26458333,0,0,0.26458333,30.904933,99.437324)" />
    <path
       style="fill:#9e9e9e;fill-opacity:1;stroke:#9e9e9e;stroke-width:0.539932;stroke-miterlimit:4;stroke-dasharray:none;stroke-dashoffset:0;stroke-opacity:1;paint-order:markers fill stroke"
       d="m 34.280843,31.512825 c -1.421901,-0.824575 -2.582906,-1.579584 -2.580012,-1.677798 0.0029,-0.09821 1.911655,-1.001783 4.241689,-2.00793 4.192321,-1.810314 4.247067,-1.822939 5.258584,-1.212695 0.562187,0.339166 1.86585,1.090696 2.897031,1.670067 l 1.874873,1.053402 -4.196302,1.856229 c -2.307966,1.020926 -4.357016,1.847616 -4.553444,1.83709 -0.196429,-0.01053 -1.520517,-0.693791 -2.942419,-1.518365 z"
       id="path1259"
       transform="matrix(0.26458333,0,0,0.26458333,30.904933,99.437324)" />
    <path
       style="fill:#9e9e9e;fill-opacity:1;stroke:#9e9e9e;stroke-width:0.539932;stroke-miterlimit:4;stroke-dasharray:none;stroke-dashoffset:0;stroke-opacity:1;paint-order:markers fill stroke"
       d="m 45.294025,26.436628 -2.643523,-1.545306 2.28638,-1.0325 c 1.257509,-0.567875 3.170308,-1.395686 4.250665,-1.83958 l 1.964286,-0.80708 2.760152,1.543575 c 1.518083,0.848967 2.760677,1.623933 2.761318,1.722147 0.0018,0.271525 -7.713174,3.576284 -8.258837,3.537739 -0.262305,-0.01853 -1.666504,-0.729077 -3.120441,-1.578995 z"
       id="path1261"
       transform="matrix(0.26458333,0,0,0.26458333,30.904933,99.437324)" />
    <path
       style="fill:#9e9e9e;fill-opacity:1;stroke:#9e9e9e;stroke-width:0.539932;stroke-miterlimit:4;stroke-dasharray:none;stroke-dashoffset:0;stroke-opacity:1;paint-order:markers fill stroke"
       d="m 54.223828,31.458374 -3.356577,-1.92661 1.21372,-0.511165 c 0.667545,-0.281141 2.579791,-1.104972 4.249434,-1.830736 l 3.035714,-1.319571 3.322639,1.856157 c 1.827452,1.020886 3.193523,1.980066 3.035714,2.131511 -0.326883,0.313701 -7.583394,3.554162 -7.922266,3.537759 -0.121991,-0.0059 -1.732261,-0.87771 -3.578378,-1.937345 z"
       id="path1263"
       transform="matrix(0.26458333,0,0,0.26458333,30.904933,99.437324)" />
    <path
       style="fill:#9e9e9e;fill-opacity:1;stroke:#9e9e9e;stroke-width:0.539932;stroke-miterlimit:4;stroke-dasharray:none;stroke-dashoffset:0;stroke-opacity:1;paint-order:markers fill stroke"
       d="m 43.21858,36.531095 c -1.809717,-1.025903 -3.175789,-1.973061 -3.035714,-2.104797 0.140075,-0.131736 2.030098,-1.030214 4.200052,-1.996617 l 3.945371,-1.757097 3.493897,1.951138 3.493896,1.951138 -4.323008,1.915798 c -2.377654,1.053688 -4.359253,1.913528 -4.403553,1.910756 -0.0443,-0.0028 -1.561223,-0.844417 -3.370941,-1.870319 z"
       id="path1265"
       transform="matrix(0.26458333,0,0,0.26458333,30.904933,99.437324)" />
    <path
       style="fill:#9e9e9e;fill-opacity:1;stroke:#9e9e9e;stroke-width:0.539932;stroke-miterlimit:4;stroke-dasharray:none;stroke-dashoffset:0;stroke-opacity:1;paint-order:markers fill stroke"
       d="m 32.66969,41.157478 c -1.71875,-1.004607 -3.121384,-1.914027 -3.116964,-2.020933 0.0073,-0.175636 6.412533,-3.058627 7.34448,-3.305725 0.39818,-0.105574 6.442402,3.141874 6.738038,3.620222 0.142271,0.230199 -7.224365,3.653295 -7.673378,3.565632 -0.09195,-0.01795 -1.573426,-0.854589 -3.292176,-1.859196 z"
       id="path1267"
       transform="matrix(0.26458333,0,0,0.26458333,30.904933,99.437324)" />
    <path
       style="fill:#9e9e9e;fill-opacity:1;stroke:#9e9e9e;stroke-width:0.539932;stroke-miterlimit:4;stroke-dasharray:none;stroke-dashoffset:0;stroke-opacity:1;paint-order:markers fill stroke"
       d="m 23.206214,45.446515 c -1.81652,-1.023819 -3.303127,-1.942489 -3.303572,-2.041489 -4.45e-4,-0.099 1.507663,-0.836302 3.351351,-1.638447 3.791063,-1.649402 3.102206,-1.738083 7.844435,1.009867 l 2.446596,1.417714 -3.486635,1.570433 c -1.917648,0.863739 -3.500759,1.564353 -3.518023,1.556922 -0.01726,-0.0074 -1.517633,-0.851181 -3.334152,-1.875 z"
       id="path1269"
       transform="matrix(0.26458333,0,0,0.26458333,30.904933,99.437324)" />
    <path
       style="fill:#9e9e9e;fill-opacity:1;stroke:#9e9e9e;stroke-width:0.539932;stroke-miterlimit:4;stroke-dasharray:none;stroke-dashoffset:0;stroke-opacity:1;paint-order:markers fill stroke"
       d="m 32.580404,50.70159 c -1.571428,-0.895469 -2.980777,-1.749158 -3.131887,-1.897088 -0.151109,-0.14793 1.270559,-0.942313 3.159262,-1.765294 l 3.434007,-1.496331 3.364916,1.912478 3.364916,1.912478 -3.309892,1.488964 c -1.820441,0.81893 -3.470607,1.485353 -3.667036,1.480941 -0.196428,-0.0044 -1.642857,-0.740679 -3.214286,-1.636148 z"
       id="path1271"
       transform="matrix(0.26458333,0,0,0.26458333,30.904933,99.437324)" />
    <path
       style="fill:#9e9e9e;fill-opacity:1;stroke:#9e9e9e;stroke-width:0.539932;stroke-miterlimit:4;stroke-dasharray:none;stroke-dashoffset:0;stroke-opacity:1;paint-order:markers fill stroke"
       d="m 42.104039,46.4808 c -1.791384,-1.003389 -3.260791,-1.915036 -3.265349,-2.02588 -0.0046,-0.110845 1.705546,-0.954966 3.800228,-1.875826 l 3.808514,-1.674289 3.322742,1.869569 c 1.827508,1.028264 3.207427,1.971884 3.066486,2.096935 -0.14094,0.125051 -1.880599,0.948821 -3.865907,1.830601 l -3.609651,1.603235 z"
       id="path1273"
       transform="matrix(0.26458333,0,0,0.26458333,30.904933,99.437324)" />
    <path
       style="fill:#9e9e9e;fill-opacity:1;stroke:#9e9e9e;stroke-width:0.539932;stroke-miterlimit:4;stroke-dasharray:none;stroke-dashoffset:0;stroke-opacity:1;paint-order:markers fill stroke"
       d="m 53.270221,42.242959 c -4.759373,-2.739824 -4.767045,-2.226137 0.06538,-4.377861 l 4.244802,-1.890073 2.748181,1.473977 c 2.977365,1.596898 4.071597,2.31042 3.83289,2.499332 -0.08387,0.06638 -2.011725,0.930468 -4.284112,1.9202 l -4.131611,1.799512 z"
       id="path1275"
       transform="matrix(0.26458333,0,0,0.26458333,30.904933,99.437324)" />
    <path
       style="fill:#9e9e9e;fill-opacity:1;stroke:#9e9e9e;stroke-width:0.539932;stroke-miterlimit:4;stroke-dasharray:none;stroke-dashoffset:0;stroke-opacity:1;paint-order:markers fill stroke"
       d="m 63.741119,36.869791 c -1.71875,-1.003522 -3.125,-1.912578 -3.125,-2.020124 0,-0.107547 1.789227,-0.985781 3.976061,-1.95163 l 3.976061,-1.756091 2.626021,1.400112 c 4.70483,2.508466 4.698814,2.244298 0.09734,4.274388 -2.204804,0.972719 -4.102502,1.793184 -4.217106,1.823255 -0.114605,0.03007 -1.614622,-0.766389 -3.333372,-1.76991 z"
       id="path1277"
       transform="matrix(0.26458333,0,0,0.26458333,30.904933,99.437324)" />
    <path
       style="fill:#9e9e9e;fill-opacity:1;stroke:#9e9e9e;stroke-width:0.539932;stroke-miterlimit:4;stroke-dasharray:none;stroke-dashoffset:0;stroke-opacity:1;paint-order:markers fill stroke"
       d="m 72.297449,41.689148 c -1.530626,-0.872206 -2.735983,-1.629327 -2.678571,-1.682492 0.05741,-0.05316 1.937043,-0.91499 4.17696,-1.91517 l 4.072577,-1.818507 1.105995,0.653012 c 0.608297,0.359157 1.904057,1.107353 2.879466,1.662658 l 1.773471,1.009645 -1.416328,0.615447 c -0.778981,0.338495 -2.702043,1.165749 -4.273472,1.838342 l -2.857142,1.222895 z"
       id="path1279"
       transform="matrix(0.26458333,0,0,0.26458333,30.904933,99.437324)" />
    <path
       style="fill:#9e9e9e;fill-opacity:1;stroke:#9e9e9e;stroke-width:0.539932;stroke-miterlimit:4;stroke-dasharray:none;stroke-dashoffset:0;stroke-opacity:1;paint-order:markers fill stroke"
       d="m 61.057546,46.62735 -2.905626,-1.661299 4.386651,-1.884583 4.38665,-1.884584 2.739505,1.532158 c 1.506727,0.842687 2.61843,1.646411 2.470449,1.786053 -0.147981,0.139642 -2.047219,1.045818 -4.22053,2.013724 l -3.951474,1.759829 z"
       id="path1281"
       transform="matrix(0.26458333,0,0,0.26458333,30.904933,99.437324)" />
    <path
       style="fill:#9e9e9e;fill-opacity:1;stroke:#9e9e9e;stroke-width:0.539932;stroke-miterlimit:4;stroke-dasharray:none;stroke-dashoffset:0;stroke-opacity:1;paint-order:markers fill stroke"
       d="m 50.345582,51.133264 -2.591965,-1.52681 3.920453,-1.713782 c 2.156248,-0.94258 4.126205,-1.632971 4.377679,-1.534202 0.251475,0.09877 1.551126,0.816356 2.888113,1.594637 l 2.430886,1.415057 -3.723436,1.662003 c -2.04789,0.914102 -3.94536,1.654781 -4.2166,1.645954 -0.271241,-0.0088 -1.659549,-0.703112 -3.08513,-1.542857 z"
       id="path1283"
       transform="matrix(0.26458333,0,0,0.26458333,30.904933,99.437324)" />
    <path
       style="fill:#9e9e9e;fill-opacity:1;stroke:#9e9e9e;stroke-width:0.539932;stroke-miterlimit:4;stroke-dasharray:none;stroke-dashoffset:0;stroke-opacity:1;paint-order:markers fill stroke"
       d="m 41.240215,55.592796 c -1.326389,-0.745148 -2.512756,-1.455952 -2.636369,-1.579566 -0.227927,-0.227927 4.742015,-2.625559 6.096142,-2.940939 0.452451,-0.105378 1.81923,0.428668 3.535785,1.381549 l 2.798225,1.553329 -3.448855,1.485357 c -1.896871,0.816947 -3.557858,1.478546 -3.691083,1.47022 -0.133225,-0.0083 -1.327455,-0.624803 -2.653845,-1.36995 z"
       id="path1285"
       transform="matrix(0.26458333,0,0,0.26458333,30.904933,99.437324)" />
    <path
       style="fill:#9e9e9e;fill-opacity:1;stroke:#9e9e9e;stroke-width:0.539932;stroke-miterlimit:4;stroke-dasharray:none;stroke-dashoffset:0;stroke-opacity:1;paint-order:markers fill stroke"
       d="m 49.633976,60.298684 c -1.620536,-0.917546 -2.943988,-1.758836 -2.941005,-1.869533 0.003,-0.110697 1.475028,-0.836389 3.271211,-1.61265 l 3.265787,-1.411382 3.008449,1.589954 c 1.654647,0.874474 3.066427,1.680527 3.137288,1.791228 0.07086,0.110701 -1.342732,0.833915 -3.141319,1.607143 -1.798586,0.773227 -3.356517,1.443587 -3.462069,1.489686 -0.105552,0.0461 -1.517806,-0.666901 -3.138342,-1.584446 z"
       id="path1287"
       transform="matrix(0.26458333,0,0,0.26458333,30.904933,99.437324)" />
    <path
       style="fill:#9e9e9e;fill-opacity:1;stroke:#9e9e9e;stroke-width:0.539932;stroke-miterlimit:4;stroke-dasharray:none;stroke-dashoffset:0;stroke-opacity:1;paint-order:markers fill stroke"
       d="m 58.896563,55.954895 -2.969556,-1.721796 3.726391,-1.663322 c 2.049516,-0.914827 3.915625,-1.663322 4.146911,-1.663322 0.509697,0 6.191727,3.243131 6.006519,3.428339 -0.202483,0.202483 -7.480216,3.358381 -7.724508,3.349636 -0.11891,-0.0043 -1.552501,-0.782547 -3.185757,-1.729535 z"
       id="path1289"
       transform="matrix(0.26458333,0,0,0.26458333,30.904933,99.437324)" />
    <path
       style="fill:#9e9e9e;fill-opacity:1;stroke:#9e9e9e;stroke-width:0.539932;stroke-miterlimit:4;stroke-dasharray:none;stroke-dashoffset:0;stroke-opacity:1;paint-order:markers fill stroke"
       d="m 69.29141,51.307524 -2.931851,-1.702416 4.313277,-1.908597 4.313278,-1.908597 2.190002,1.197277 c 1.204502,0.658502 2.62657,1.459605 3.160152,1.780229 l 0.970149,0.582953 -4.184435,1.850978 c -2.301439,1.018038 -4.345149,1.84189 -4.541577,1.830783 -0.196429,-0.01111 -1.676477,-0.786282 -3.288995,-1.72261 z"
       id="path1291"
       transform="matrix(0.26458333,0,0,0.26458333,30.904933,99.437324)" />
    <path
       style="fill:#9e9e9e;fill-opacity:1;stroke:#9e9e9e;stroke-width:0.539932;stroke-miterlimit:4;stroke-dasharray:none;stroke-dashoffset:0;stroke-opacity:1;paint-order:markers fill stroke"
       d="m 80.704051,46.46665 c -1.424852,-0.833405 -2.676093,-1.600737 -2.780537,-1.705181 -0.104444,-0.104444 1.672811,-1.009756 3.949455,-2.011804 l 4.139353,-1.821907 3.0075,1.685777 c 1.654125,0.927178 3.011408,1.772192 3.016184,1.877809 0.0125,0.27633 -7.700946,3.564523 -8.267251,3.524279 -0.260736,-0.01853 -1.639853,-0.715567 -3.064704,-1.548973 z"
       id="path1293"
       transform="matrix(0.26458333,0,0,0.26458333,30.904933,99.437324)" />
  </g>
</svg>
