<?xml version="1.0" encoding="UTF-8" standalone="no"?>
<svg
   xmlns:dc="http://purl.org/dc/elements/1.1/"
   xmlns:cc="http://creativecommons.org/ns#"
   xmlns:rdf="http://www.w3.org/1999/02/22-rdf-syntax-ns#"
   xmlns:svg="http://www.w3.org/2000/svg"
   xmlns="http://www.w3.org/2000/svg"
   xmlns:sodipodi="http://sodipodi.sourceforge.net/DTD/sodipodi-0.dtd"
   xmlns:inkscape="http://www.inkscape.org/namespaces/inkscape"
   width="33.878841mm"
   height="33.868061mm"
   viewBox="0 0 33.878841 33.868061"
   version="1.1"
   id="svg8"
   inkscape:export-filename="C:\Users\lucaz\OneDrive\Desktop\simbiopy_development\simbiopy\icons\home.png"
   inkscape:export-xdpi="95.996056"
   inkscape:export-ydpi="95.996056"
   sodipodi:docname="home.svg"
   inkscape:version="1.0.2-2 (e86c870879, 2021-01-15)">
  <defs
     id="defs2">
    <marker
       style="overflow:visible"
       id="marker4077"
       refX="0"
       refY="0"
       orient="auto"
       inkscape:stockid="Arrow1Mend"
       inkscape:isstock="true">
      <path
         transform="matrix(-0.4,0,0,-0.4,-4,0)"
         style="fill:#ff0000;fill-opacity:1;fill-rule:evenodd;stroke:#ff0000;stroke-width:1pt;stroke-opacity:1"
         d="M 0,0 5,-5 -12.5,0 5,5 Z"
         id="path4075" />
    </marker>
    <marker
       style="overflow:visible"
       id="marker1753"
       refX="0"
       refY="0"
       orient="auto"
       inkscape:stockid="Arrow1Mend"
       inkscape:isstock="true">
      <path
         transform="matrix(-0.4,0,0,-0.4,-4,0)"
         style="fill:#000000;fill-opacity:1;fill-rule:evenodd;stroke:#000000;stroke-width:1pt;stroke-opacity:1"
         d="M 0,0 5,-5 -12.5,0 5,5 Z"
         id="path1751" />
    </marker>
    <marker
       style="overflow:visible"
       id="marker1743"
       refX="0"
       refY="0"
       orient="auto"
       inkscape:stockid="Arrow1Mend"
       inkscape:isstock="true">
      <path
         transform="matrix(-0.4,0,0,-0.4,-4,0)"
         style="fill:#000000;fill-opacity:1;fill-rule:evenodd;stroke:#000000;stroke-width:1pt;stroke-opacity:1"
         d="M 0,0 5,-5 -12.5,0 5,5 Z"
         id="path1741" />
    </marker>
    <marker
       style="overflow:visible"
       id="marker1733"
       refX="0"
       refY="0"
       orient="auto"
       inkscape:stockid="Arrow1Mend"
       inkscape:isstock="true">
      <path
         transform="matrix(-0.4,0,0,-0.4,-4,0)"
         style="fill:#000000;fill-opacity:1;fill-rule:evenodd;stroke:none;stroke-width:1pt;stroke-opacity:1"
         d="M 0,0 5,-5 -12.5,0 5,5 Z"
         id="path1731" />
    </marker>
    <marker
       style="overflow:visible"
       id="marker1581"
       refX="0"
       refY="0"
       orient="auto"
       inkscape:stockid="Arrow1Mend"
       inkscape:isstock="true">
      <path
         transform="matrix(-0.4,0,0,-0.4,-4,0)"
         style="fill:#000000;fill-opacity:1;fill-rule:evenodd;stroke:#000000;stroke-width:1pt;stroke-opacity:1"
         d="M 0,0 5,-5 -12.5,0 5,5 Z"
         id="path1579" />
    </marker>
    <marker
       style="overflow:visible"
       id="marker1445"
       refX="0.0"
       refY="0.0"
       orient="auto"
       inkscape:stockid="Arrow1Lstart"
       inkscape:isstock="true">
      <path
         transform="scale(0.8) translate(12.5,0)"
         style="fill-rule:evenodd;stroke:none;stroke-width:1pt;stroke-opacity:1;fill:#000000;fill-opacity:1"
         d="M 0.0,0.0 L 5.0,-5.0 L -12.5,0.0 L 5.0,5.0 L 0.0,0.0 z "
         id="path1443" />
    </marker>
    <marker
       style="overflow:visible"
       id="marker1435"
       refX="0.0"
       refY="0.0"
       orient="auto"
       inkscape:stockid="Arrow1Lstart"
       inkscape:isstock="true">
      <path
         transform="scale(0.8) translate(12.5,0)"
         style="fill-rule:evenodd;stroke:none;stroke-width:1pt;stroke-opacity:1;fill:#000000;fill-opacity:1"
         d="M 0.0,0.0 L 5.0,-5.0 L -12.5,0.0 L 5.0,5.0 L 0.0,0.0 z "
         id="path1433" />
    </marker>
    <marker
       style="overflow:visible"
       id="Arrow1Lstart"
       refX="0.0"
       refY="0.0"
       orient="auto"
       inkscape:stockid="Arrow1Lstart"
       inkscape:isstock="true">
      <path
         transform="scale(0.8) translate(12.5,0)"
         style="fill-rule:evenodd;stroke:none;stroke-width:1pt;stroke-opacity:1;fill:#000000;fill-opacity:1"
         d="M 0.0,0.0 L 5.0,-5.0 L -12.5,0.0 L 5.0,5.0 L 0.0,0.0 z "
         id="path837" />
    </marker>
  </defs>
  <sodipodi:namedview
     id="base"
     pagecolor="#ffffff"
     bordercolor="#666666"
     borderopacity="1.0"
     inkscape:pageopacity="0.0"
     inkscape:pageshadow="2"
     inkscape:zoom="2.8284271"
     inkscape:cx="22.13391"
     inkscape:cy="104.7248"
     inkscape:document-units="mm"
     inkscape:current-layer="layer1"
     inkscape:document-rotation="0"
     showgrid="false"
     inkscape:window-width="1680"
     inkscape:window-height="987"
     inkscape:window-x="-8"
     inkscape:window-y="-8"
     inkscape:window-maximized="1" />
  <metadata
     id="metadata5">
    <rdf:RDF>
      <cc:Work
         rdf:about="">
        <dc:format>image/svg+xml</dc:format>
        <dc:type
           rdf:resource="http://purl.org/dc/dcmitype/StillImage" />
        <dc:title></dc:title>
      </cc:Work>
    </rdf:RDF>
  </metadata>
  <g
     inkscape:label="Livello 1"
     inkscape:groupmode="layer"
     id="layer1"
     transform="translate(-62.435463,-49.41369)">
    <g
       id="g1118"
       transform="matrix(0.06836256,0,0,0.07341501,62.47219,48.325165)"
       style="stroke-width:3.73474">
      <g
         id="g1059"
         style="stroke-width:3.73474">
	<g
   id="g1057"
   style="stroke-width:3.73474">
		<g
   id="g1055"
   style="stroke-width:3.73474">
			<path
   d="m 487.083,225.514 -75.08,-75.08 v -86.73 c 0,-15.682 -12.708,-28.391 -28.413,-28.391 -15.669,0 -28.377,12.709 -28.377,28.391 V 93.645 L 299.31,37.74 C 271.671,10.116 223.616,10.165 196.04,37.79 L 8.312,225.514 c -11.082,11.104 -11.082,29.071 0,40.158 11.087,11.101 29.089,11.101 40.172,0 L 236.194,77.943 c 6.115,-6.083 16.893,-6.083 22.976,-0.018 l 187.742,187.747 c 5.567,5.551 12.825,8.312 20.081,8.312 7.271,0 14.541,-2.764 20.091,-8.312 11.086,-11.086 11.086,-29.053 -10e-4,-40.158 z"
   id="path1051"
   style="stroke-width:3.73474" />

			<path
   d="m 257.561,131.836 c -5.454,-5.451 -14.285,-5.451 -19.723,0 L 72.712,296.913 c -2.607,2.606 -4.085,6.164 -4.085,9.877 v 120.401 c 0,28.253 22.908,51.16 51.16,51.16 h 81.754 v -126.61 h 92.299 v 126.61 h 81.755 c 28.251,0 51.159,-22.907 51.159,-51.159 V 306.79 c 0,-3.713 -1.465,-7.271 -4.085,-9.877 z"
   id="path1053"
   style="stroke-width:3.73474" />

		</g>

	</g>

</g>
      <g
         id="g1061"
         style="stroke-width:3.73474">
</g>
      <g
         id="g1063"
         style="stroke-width:3.73474">
</g>
      <g
         id="g1065"
         style="stroke-width:3.73474">
</g>
      <g
         id="g1067"
         style="stroke-width:3.73474">
</g>
      <g
         id="g1069"
         style="stroke-width:3.73474">
</g>
      <g
         id="g1071"
         style="stroke-width:3.73474">
</g>
      <g
         id="g1073"
         style="stroke-width:3.73474">
</g>
      <g
         id="g1075"
         style="stroke-width:3.73474">
</g>
      <g
         id="g1077"
         style="stroke-width:3.73474">
</g>
      <g
         id="g1079"
         style="stroke-width:3.73474">
</g>
      <g
         id="g1081"
         style="stroke-width:3.73474">
</g>
      <g
         id="g1083"
         style="stroke-width:3.73474">
</g>
      <g
         id="g1085"
         style="stroke-width:3.73474">
</g>
      <g
         id="g1087"
         style="stroke-width:3.73474">
</g>
      <g
         id="g1089"
         style="stroke-width:3.73474">
</g>
    </g>
  </g>
</svg>
